<?xml version="1.0" standalone="no"?>
<!DOCTYPE svg PUBLIC "-//W3C//DTD SVG 20010904//EN"
 "http://www.w3.org/TR/2001/REC-SVG-20010904/DTD/svg10.dtd">
<svg version="1.0" xmlns="http://www.w3.org/2000/svg"
 width="700.000000pt" height="700.000000pt" viewBox="0 0 700.000000 700.000000"
 preserveAspectRatio="xMidYMid meet">
<metadata>
Created by potrace 1.14, written by Peter Selinger 2001-2017
</metadata>
<g transform="translate(0.000000,700.000000) scale(0.100000,-0.100000)"
fill="#000000" stroke="none">
<path d="M5290 5030 l0 -1530 155 0 155 0 0 1530 0 1530 -155 0 -155 0 0
-1530z"/>
<path d="M6370 5030 l0 -1530 95 0 95 0 0 1530 0 1530 -95 0 -95 0 0 -1530z"/>
<path d="M1220 5020 l0 -1520 -390 0 -390 0 0 -1530 0 -1530 410 0 410 0 0
1530 0 1530 110 0 110 0 0 -1530 0 -1530 360 0 360 0 0 1530 0 1530 110 0 110
0 0 1520 0 1520 -600 0 -600 0 0 -1520z"/>
<path d="M2730 5020 l0 -1520 -85 0 -85 0 0 -1530 0 -1530 295 0 295 0 0 1530
0 1530 205 0 205 0 0 -1530 0 -1530 155 0 155 0 0 1530 0 1530 -115 0 -115 0
0 1520 0 1520 -455 0 -455 0 0 -1520z"/>
<path d="M4100 5020 l0 -1520 130 0 130 0 0 -1530 0 -1530 110 0 110 0 0 1530
0 1530 95 0 95 0 0 1520 0 1520 -335 0 -335 0 0 -1520z"/>
</g>
</svg>
