<svg width="640" height="640" viewBox="0 0 640 640" fill="none" xmlns="http://www.w3.org/2000/svg" style="width: 100%; height: 100%;">
<g clip-path="url(#clip0_301_6228)">
<g opacity="0.4" filter="url(#filter0_d_301_6228)">
<rect x="160" y="95" width="400" height="618" rx="24" fill="white"/>
</g>
<g opacity="0.6" filter="url(#filter1_d_301_6228)">
<rect x="140" y="75" width="400" height="618" rx="24" fill="white"/>
</g>
<g filter="url(#filter2_d_301_6228)">
<rect x="120" y="55" width="400" height="640" rx="24" fill="white"/>
<text fill="#393939" xml:space="preserve" style="white-space: pre" font-family="Inter" font-size="26" font-weight="600" letter-spacing="-0.5px"><tspan x="152" y="112.455">Add wire account</tspan></text>
<text fill="#393939" xml:space="preserve" style="white-space: pre" font-family="Inter" font-size="16" letter-spacing="0em"><tspan x="152" y="160.818">Please provide the bank and account details</tspan></text>
<text fill="#393939" xml:space="preserve" style="white-space: pre" font-family="Inter" font-size="16" font-weight="500" letter-spacing="0em"><tspan x="152" y="208.818">Currency</tspan></text>
<rect x="152.5" y="221.5" width="335" height="47" rx="5.5" fill="white"/>
<rect x="152.5" y="221.5" width="335" height="47" rx="5.5" stroke="#C6C6C6"/>
<text fill="black" xml:space="preserve" style="white-space: pre" font-family="Inter" font-size="16" font-weight="500" letter-spacing="0em"><tspan x="168" y="250.818">€ EUR</tspan></text>
<path d="M466 248L461 243H471L466 248Z" fill="#393939"/>
<text fill="#393939" xml:space="preserve" style="white-space: pre" font-family="Inter" font-size="16" font-weight="500" letter-spacing="0em"><tspan x="152" y="310.818">Country</tspan></text>
<rect x="152.5" y="323.5" width="335" height="47" rx="5.5" fill="white"/>
<rect x="152.5" y="323.5" width="335" height="47" rx="5.5" stroke="#C6C6C6"/>
<g clip-path="url(#clip1_301_6228)">
<mask id="mask0_301_6228" style="mask-type:luminance" maskUnits="userSpaceOnUse" x="168" y="335" width="24" height="24">
<path d="M192 335H168V359H192V335Z" fill="white"/>
</mask>
<g mask="url(#mask0_301_6228)">
<path d="M168 347C168 348.4 168.25 349.75 168.675 351H191.3C191.75 349.75 192 348.4 192 347C192 345.6 191.75 344.25 191.325 343H168.675C168.25 344.25 168 345.6 168 347Z" fill="#F0263C"/>
<path d="M168.675 343H191.3C189.675 338.35 185.225 335 180 335C174.775 335 170.325 338.35 168.675 343Z" fill="black"/>
<path d="M191.325 351H168.675C170.325 355.65 174.775 359 180 359C185.225 359 189.675 355.65 191.325 351Z" fill="#FFD400"/>
</g>
</g>
<text fill="black" xml:space="preserve" style="white-space: pre" font-family="Inter" font-size="16" font-weight="500" letter-spacing="0em"><tspan x="202" y="352.818">Germany</tspan></text>
<path d="M466 350L461 345H471L466 350Z" fill="#393939"/>
<text fill="#393939" xml:space="preserve" style="white-space: pre" font-family="Inter" font-size="16" font-weight="500" letter-spacing="0em"><tspan x="152" y="412.818">I have...</tspan></text>
<rect x="152.5" y="425.5" width="335" height="47" rx="5.5" fill="white"/>
<rect x="152.5" y="425.5" width="335" height="47" rx="5.5" stroke="#C6C6C6"/>
<text fill="black" xml:space="preserve" style="white-space: pre" font-family="Inter" font-size="16" font-weight="500" letter-spacing="0em"><tspan x="168" y="454.818">IBAN</tspan></text>
<path d="M466 452L461 447H471L466 452Z" fill="#393939"/>
<path d="M152 502C152 492.611 159.611 485 169 485H471C480.389 485 488 492.611 488 502V556C488 565.389 480.389 573 471 573H169C159.611 573 152 565.389 152 556V502Z" fill="url(#paint0_linear_301_6228)" fill-opacity="0.1"/>
<rect x="169" y="506" width="302" height="46" rx="5" fill="white"/>
<rect x="169" y="506" width="302" height="46" rx="5" stroke="#205F9E" stroke-width="2"/>
<text fill="#205F9E" xml:space="preserve" style="white-space: pre" font-family="Inter" font-size="16" font-weight="500" letter-spacing="0em"><tspan x="184" y="534.818">IBAN</tspan></text>
</g>
</g>
<defs>
<filter id="filter0_d_301_6228" x="94" y="49" width="532" height="750" filterUnits="userSpaceOnUse" color-interpolation-filters="sRGB">
<feFlood flood-opacity="0" result="BackgroundImageFix"/>
<feColorMatrix in="SourceAlpha" type="matrix" values="0 0 0 0 0 0 0 0 0 0 0 0 0 0 0 0 0 0 127 0" result="hardAlpha"/>
<feOffset dy="20"/>
<feGaussianBlur stdDeviation="33"/>
<feComposite in2="hardAlpha" operator="out"/>
<feColorMatrix type="matrix" values="0 0 0 0 0.133333 0 0 0 0 0.188235 0 0 0 0 0.286275 0 0 0 0.2 0"/>
<feBlend mode="normal" in2="BackgroundImageFix" result="effect1_dropShadow_301_6228"/>
<feBlend mode="normal" in="SourceGraphic" in2="effect1_dropShadow_301_6228" result="shape"/>
</filter>
<filter id="filter1_d_301_6228" x="74" y="29" width="532" height="750" filterUnits="userSpaceOnUse" color-interpolation-filters="sRGB">
<feFlood flood-opacity="0" result="BackgroundImageFix"/>
<feColorMatrix in="SourceAlpha" type="matrix" values="0 0 0 0 0 0 0 0 0 0 0 0 0 0 0 0 0 0 127 0" result="hardAlpha"/>
<feOffset dy="20"/>
<feGaussianBlur stdDeviation="33"/>
<feComposite in2="hardAlpha" operator="out"/>
<feColorMatrix type="matrix" values="0 0 0 0 0.133333 0 0 0 0 0.188235 0 0 0 0 0.286275 0 0 0 0.2 0"/>
<feBlend mode="normal" in2="BackgroundImageFix" result="effect1_dropShadow_301_6228"/>
<feBlend mode="normal" in="SourceGraphic" in2="effect1_dropShadow_301_6228" result="shape"/>
</filter>
<filter id="filter2_d_301_6228" x="54" y="9" width="532" height="772" filterUnits="userSpaceOnUse" color-interpolation-filters="sRGB">
<feFlood flood-opacity="0" result="BackgroundImageFix"/>
<feColorMatrix in="SourceAlpha" type="matrix" values="0 0 0 0 0 0 0 0 0 0 0 0 0 0 0 0 0 0 127 0" result="hardAlpha"/>
<feOffset dy="20"/>
<feGaussianBlur stdDeviation="33"/>
<feComposite in2="hardAlpha" operator="out"/>
<feColorMatrix type="matrix" values="0 0 0 0 0.133333 0 0 0 0 0.188235 0 0 0 0 0.286275 0 0 0 0.2 0"/>
<feBlend mode="normal" in2="BackgroundImageFix" result="effect1_dropShadow_301_6228"/>
<feBlend mode="normal" in="SourceGraphic" in2="effect1_dropShadow_301_6228" result="shape"/>
</filter>
<linearGradient id="paint0_linear_301_6228" x1="470.691" y1="479.392" x2="342.388" y2="689.346" gradientUnits="userSpaceOnUse">
<stop offset="0.57" stop-color="#6D4CD5"/>
<stop offset="1" stop-color="#18D3ED"/>
</linearGradient>
<clipPath id="clip0_301_6228">
<rect width="640" height="640" fill="white"/>
</clipPath>
<clipPath id="clip1_301_6228">
<rect width="24" height="24" fill="white" transform="translate(168 335)"/>
</clipPath>
</defs>
</svg>
