<svg width="145" height="23" viewBox="0 0 145 23" fill="none" xmlns="http://www.w3.org/2000/svg">
<path d="M139.815 1.01929H144.89L137.134 19.0822C136.171 21.3205 134.427 22.2055 131.382 22.2055H127.4V17.8589H133.516L125.786 1.01929H130.887L135.572 12.9918L139.815 1.01929Z" fill="black"/>
<path d="M124.864 1.01931V17H120.283V14.3973C118.982 16.3754 116.744 17.3905 113.62 17.3905C108.649 17.3905 105.63 13.8508 105.63 9.00968C105.63 4.16861 108.649 0.628906 113.62 0.628906C116.639 0.628906 118.93 1.74808 120.283 3.85629V1.01931H124.864ZM120.283 9.00968C120.283 5.93847 119.112 4.61108 115.26 4.61108C111.434 4.61108 110.237 5.93847 110.237 9.00968C110.237 12.0809 111.434 13.4083 115.26 13.4083C119.112 13.4083 120.283 12.0809 120.283 9.00968Z" fill="black"/>
<path d="M89.6146 1.01929H94.5077L98.2817 11.9768L101.899 1.01929H106.845L100.468 17H96.1214L91.879 6.01652L87.4283 17H83.316L76.7051 1.01929H81.7804L85.5544 11.9768L89.6146 1.01929Z" fill="black"/>
<path d="M77.8558 12.6275C77.8558 15.5165 74.9928 17.4165 68.7203 17.4165C65.0765 17.4165 59.1162 17.0001 59.1162 12.0028V11.1699H64.5559V11.8206C64.5559 12.7056 64.9463 13.6686 69.0066 13.6686C72.0257 13.6686 72.8846 13.3042 72.8846 12.1069C72.8846 10.7015 70.8025 10.4672 66.9244 9.97269C60.8861 9.19187 59.5847 7.89051 59.5847 5.28779C59.5847 1.61794 63.8271 0.628906 68.3299 0.628906C74.3422 0.628906 77.6216 2.37273 77.6216 6.61518H72.5463C72.5463 5.07957 72.286 4.14259 68.0436 4.14259C65.597 4.14259 64.5559 4.48094 64.5559 5.67819C64.5559 7.16175 66.0915 7.13572 70.0997 7.57818C76.8147 8.30695 77.8558 9.92064 77.8558 12.6275Z" fill="black"/>
<path d="M54.9974 1.01929H60.0728L52.3166 19.0822C51.3536 21.3205 49.6098 22.2055 46.5646 22.2055H42.5824V17.8589H48.6988L40.9688 1.01929H46.0701L50.755 12.9918L54.9974 1.01929Z" fill="black"/>
<path d="M40.0466 1.01931V17H35.4658V14.3973C34.1645 16.3754 31.9261 17.3905 28.8029 17.3905C23.8317 17.3905 20.8125 13.8508 20.8125 9.00968C20.8125 4.16861 23.8317 0.628906 28.8029 0.628906C31.822 0.628906 34.1124 1.74808 35.4658 3.85629V1.01931H40.0466ZM35.4658 9.00968C35.4658 5.93847 34.2946 4.61108 30.4426 4.61108C26.6166 4.61108 25.4193 5.93847 25.4193 9.00968C25.4193 12.0809 26.6166 13.4083 30.4426 13.4083C34.2946 13.4083 35.4658 12.0809 35.4658 9.00968Z" fill="black"/>
<path d="M0.961914 1.01931H5.54271V3.85629C6.89613 1.74808 9.18653 0.628906 12.2057 0.628906C17.1769 0.628906 20.1961 4.16861 20.1961 9.00968C20.1961 13.8508 17.1769 17.3905 12.2057 17.3905C9.08242 17.3905 6.84408 16.3754 5.54271 14.3973V22.2055H0.961914V1.01931ZM5.54271 9.00968C5.54271 12.0809 6.71394 13.4083 10.566 13.4083C14.392 13.4083 15.5892 12.0809 15.5892 9.00968C15.5892 5.93847 14.392 4.61108 10.566 4.61108C6.71394 4.61108 5.54271 5.93847 5.54271 9.00968Z" fill="black"/>
</svg>
