<svg width="640" height="640" viewBox="0 0 640 640" fill="none" xmlns="http://www.w3.org/2000/svg" style="width: 100%; height: 100%;">
<g clip-path="url(#clip0_1009_9080)">
<g filter="url(#filter0_d_1009_9080)">
<g clip-path="url(#clip1_1009_9080)">
<rect x="120" y="42" width="400" height="638" rx="24" fill="white"/>
<text fill="#393939" xml:space="preserve" style="white-space: pre" font-family="Inter" font-size="26" font-weight="600" letter-spacing="-0.5px"><tspan x="152" y="99.4545">Add wire account</tspan></text>
<text fill="#393939" xml:space="preserve" style="white-space: pre" font-family="Inter" font-size="16" letter-spacing="0em"><tspan x="152" y="139.818">Please provide the bank and account details</tspan></text>
<text fill="#DD1515" xml:space="preserve" style="white-space: pre" font-family="Inter" font-size="16" font-weight="500" letter-spacing="0em"><tspan x="152" y="179.818">Currency</tspan></text>
<rect x="152.5" y="192.5" width="335" height="47" rx="5.5" fill="white"/>
<rect x="152.5" y="192.5" width="335" height="47" rx="5.5" stroke="#DD1515"/>
<text fill="#DD1515" xml:space="preserve" style="white-space: pre" font-family="Inter" font-size="16" font-weight="500" letter-spacing="0em"><tspan x="168" y="221.818">₩ KRW</tspan></text>
<path d="M466 219L461 214H471L466 219Z" fill="#DD1515"/>
<text fill="#DD1515" xml:space="preserve" style="white-space: pre" font-family="Inter" font-size="16" font-weight="500" letter-spacing="0em"><tspan x="159.102" y="267.818">LLOYDS BANK PLC does not support KRW</tspan></text>
<text fill="#393939" xml:space="preserve" style="white-space: pre" font-family="Inter" font-size="16" font-weight="500" letter-spacing="0em"><tspan x="152" y="307.818">Country</tspan></text>
<rect x="152.5" y="320.5" width="335" height="47" rx="5.5" fill="white"/>
<rect x="152.5" y="320.5" width="335" height="47" rx="5.5" stroke="#C6C6C6"/>
<g clip-path="url(#clip2_1009_9080)">
<mask id="mask0_1009_9080" style="mask-type:alpha" maskUnits="userSpaceOnUse" x="168" y="332" width="24" height="24">
<path d="M180 356C186.627 356 192 350.627 192 344C192 337.373 186.627 332 180 332C173.373 332 168 337.373 168 344C168 350.627 173.373 356 180 356Z" fill="#231D9A"/>
</mask>
<g mask="url(#mask0_1009_9080)">
<path d="M192 332H168V356H192V332Z" fill="#231D9A"/>
<path d="M178.125 342.125V331.625H177V339.688L168.938 334.25L166.5 337.438L171.938 341H167.062V342.125H178.125Z" fill="white"/>
<path d="M178.125 345.875V356.375H177V348.312L168.938 353.75L166.5 350.562L171.938 347H167.062V345.875H178.125Z" fill="white"/>
<path d="M181.875 342.125V331.625H183V339.688L191.062 334.25L193.5 337.438L188.062 341H192.938V342.125H181.875Z" fill="white"/>
<path d="M181.875 345.875V356.375H183V348.312L191.062 353.75L193.5 350.562L188.062 347H192.938V345.875H181.875Z" fill="white"/>
<path d="M177 341V340.812L169.125 335.562L167.812 337.062L173.625 341H177Z" fill="#F0263C"/>
<path d="M177 347V347.188L169.125 352.438L167.812 350.938L173.625 347H177Z" fill="#F0263C"/>
<path d="M183 341V340.812L190.875 335.562L192.188 337.062L186.375 341H183Z" fill="#F0263C"/>
<path d="M183 347V347.188L190.875 352.438L192.188 350.938L186.375 347H183Z" fill="#F0263C"/>
<path fill-rule="evenodd" clip-rule="evenodd" d="M181.875 342.125V331.25H178.125V342.125H167.25V345.875H178.125V356.75H181.875V345.875H192.75V342.125H181.875Z" fill="#F0263C"/>
</g>
</g>
<text fill="black" xml:space="preserve" style="white-space: pre" font-family="Inter" font-size="16" font-weight="500" letter-spacing="0em"><tspan x="202" y="349.818">United Kingdom</tspan></text>
<path d="M466 347L461 342H471L466 347Z" fill="#393939"/>
<text fill="#393939" xml:space="preserve" style="white-space: pre" font-family="Inter" font-size="16" font-weight="500" letter-spacing="0em"><tspan x="152" y="401.818">I have...</tspan></text>
<rect x="152.5" y="414.5" width="335" height="47" rx="5.5" fill="white"/>
<rect x="152.5" y="414.5" width="335" height="47" rx="5.5" stroke="#C6C6C6"/>
<text fill="black" xml:space="preserve" style="white-space: pre" font-family="Inter" font-size="16" font-weight="500" letter-spacing="0em"><tspan x="168" y="443.818">BIC and IBAN</tspan></text>
<path d="M466 441L461 436H471L466 441Z" fill="#393939"/>
<rect x="152" y="474" width="336" height="170" rx="10" fill="url(#paint0_linear_1009_9080)" fill-opacity="0.1"/>
<rect x="169" y="495" width="302" height="46" rx="5" fill="white"/>
<rect x="169" y="495" width="302" height="46" rx="5" stroke="#2E6DC5" stroke-width="2"/>
<path d="M206 500H178C175.791 500 174 501.791 174 504V532C174 534.209 175.791 536 178 536H206C208.209 536 210 534.209 210 532V504C210 501.791 208.209 500 206 500Z" fill="#F4F4F4"/>
<path d="M204.05 518.143C204.538 518.507 205.047 518.764 205.047 519.343C205.047 519.514 204.835 519.686 204.368 519.686C204.008 519.686 203.626 519.579 203.435 519.321C203.287 519.129 203.499 518.85 203.372 518.657C203.266 518.486 203.053 518.572 202.905 518.486C202.735 518.379 202.714 518.314 202.587 518.057C202.46 517.757 202.014 517.265 201.484 516.729C201.039 516.279 200.572 516.043 200.36 516.065C200.211 516.086 200.169 516.086 200.021 516.086C199.639 516.086 199.321 516.45 198.769 516.686C198.398 516.853 198.188 516.938 197.962 516.982C197.949 516.985 197.938 516.992 197.93 517.002C197.901 517.038 197.928 517.09 197.974 517.088L198.345 517.072C198.812 517.072 199.406 517.007 199.872 517.007C200.339 517.007 200.572 517.436 200.763 517.886C201.123 518.786 201.654 520.093 202.311 521.185C202.629 521.7 202.884 522.021 202.884 522.664C202.884 522.857 202.863 523.135 202.608 523.135C202.248 523.135 201.336 522.749 201.336 522.342C201.336 522.021 201.59 521.892 201.59 521.571C201.59 521.378 201.293 521.4 201.23 521.228C200.996 520.264 200.72 519.3 200.19 518.721C199.915 518.422 199.872 518.293 199.596 518.293C199.448 518.293 199.299 518.336 199.172 518.379C198.43 518.657 197.433 519.514 196.182 519.878C195.723 520.026 195.633 519.759 195.166 519.832C195.163 519.832 195.163 519.836 195.166 519.836C195.168 519.836 195.168 519.839 195.166 519.84C194.773 519.929 194.476 520.159 193.934 520.307C193.191 520.521 191.898 520.628 190.858 520.478C189.591 520.296 188.569 521.112 187.726 522.075C187.456 522.383 187.143 522.645 186.786 522.814C186.256 523.049 186.107 523.371 186.256 523.971C186.447 524.721 187.104 525.256 187.444 525.899C187.762 526.435 188.271 527.313 188.801 527.592C189.331 527.87 189.671 528.277 189.671 528.641C189.671 528.813 189.607 528.899 189.437 528.899H188.356C188.128 528.899 188.018 528.625 187.987 528.399C187.965 528.241 187.952 528.088 187.825 527.934C187.677 527.763 187.571 527.806 187.38 527.656C187.062 527.335 187.295 527.163 187.062 526.756C186.383 525.663 186.086 525.406 185.514 524.613C185.196 524.206 184.793 523.992 184.793 523.457C184.793 522.78 184.628 522.529 183.962 522.651C183.895 522.664 183.825 522.675 183.753 522.685C183.647 522.707 183.393 522.899 183.287 523.028C183.032 523.285 182.926 523.564 182.884 523.949C182.799 524.849 182.629 525.749 182.735 526.649C182.884 527.227 182.99 527.42 183.456 527.742C183.753 527.934 184.093 528.213 184.135 528.641C184.135 528.749 184.093 528.899 183.944 528.899H182.778C182.672 528.899 182.566 528.813 182.523 528.749C182.396 528.513 182.481 528.363 182.417 528.084C182.311 527.549 181.696 527.57 181.696 527.013C181.696 526.842 181.802 526.627 181.802 526.285C181.844 525.535 182.057 524.292 181.844 522.814C181.738 521.957 182.629 521.914 183.096 521.164C183.372 520.735 183.287 520.907 183.456 520.607C183.626 520.286 183.584 520.05 183.562 519.857C183.562 519.6 183.308 519.086 183.478 518.014C183.535 517.591 183.729 517.149 183.999 516.769C184.058 516.686 184.088 516.558 183.987 516.558C183.52 516.6 183.52 516.472 183.223 516.472C183.11 516.472 183.005 516.509 182.918 516.563C182.732 516.676 182.438 516.753 182.438 516.536C182.438 516.365 182.481 516.215 182.629 516.065C182.693 516 182.629 515.958 182.544 515.958C182.335 515.958 182.132 516.11 181.982 516.297C181.816 516.504 181.707 516.386 181.442 516.386C181.335 516.386 181.272 516.536 181.272 516.686C181.272 517.736 182.969 517.972 182.969 519.364C182.969 520.971 181.06 520.628 181.06 521.207C181.06 521.419 181.199 521.659 180.989 521.692C180.957 521.697 180.923 521.7 180.89 521.7C180.466 521.7 180.148 521.378 180.148 520.95C180.148 520.071 181.314 520.05 181.314 519.386C181.314 519.064 181.123 518.979 180.932 518.829C179.83 518.036 179.193 517.243 179.193 515.936C179.193 514.522 180.169 513.451 181.42 513.451C182.622 513.451 183.059 514.38 183.691 515.064C184.342 515.768 185.377 515.375 186.312 515.163C186.553 515.108 186.798 515.079 187.041 515.079C188.122 515.079 188.589 515.358 189.734 515.358C190.201 515.358 190.964 515.229 191.876 514.586C192.216 514.351 192.364 514.308 192.682 514.029C193.403 513.408 194.082 512.187 194.082 511.308V511.351C194.082 511.073 194.018 510.901 193.891 510.901C193.509 510.901 193.149 511.265 192.767 511.651C192.513 511.908 192.894 512.037 192.343 512.337C192.152 512.444 191.919 512.251 191.707 512.251C191.261 512.251 191.07 511.715 191.07 511.265C191.07 511.03 191.24 510.965 191.346 510.751C191.579 510.301 191.558 510.13 191.77 509.701C191.898 509.401 192.131 509.209 192.11 508.994C192.11 508.909 192.046 508.866 192.046 508.78C192.046 508.33 192.64 508.03 192.64 507.58C192.64 507.323 192.364 507.216 192.301 507.023C192.279 506.957 192.269 506.906 192.266 506.867C192.261 506.799 192.295 506.723 192.364 506.723C192.394 506.723 192.421 506.727 192.447 506.735C192.705 506.812 192.81 506.799 192.81 506.53C192.81 506.423 192.788 506.23 192.916 506.23C193.064 506.23 193.043 506.423 193.17 506.53C193.34 506.659 193.488 506.638 193.658 506.766C193.87 506.902 193.994 507.126 194.079 507.167C194.094 507.174 194.117 507.176 194.134 507.177C194.363 507.191 194.583 506.828 194.802 506.898C194.909 506.932 195.022 506.959 195.143 506.959C195.673 506.959 195.864 507.109 195.97 507.195C196.309 507.495 196.373 507.73 196.754 507.73C196.989 507.73 197.257 507.637 197.286 507.869C197.302 507.993 197.29 508.133 197.247 508.276C197.182 508.499 197.128 508.761 197.327 508.882C197.518 508.999 197.772 509.056 197.921 509.166C198.154 509.337 198.112 509.423 198.281 509.509C198.423 509.604 198.658 509.705 198.608 509.868C198.56 510.025 198.457 510.162 198.32 510.265C198.091 510.437 197.857 510.684 198.01 510.926C198.11 511.084 198.248 511.215 198.385 511.32C198.588 511.477 198.664 511.801 198.449 511.94C198.226 512.084 198.114 512.303 198.214 512.548C198.256 512.651 198.297 512.758 198.327 512.868C198.417 513.187 197.878 513.398 197.878 513.729C197.878 514.029 198.26 514.179 197.857 514.394C197.459 514.645 198.233 514.936 198.704 514.916C198.886 514.908 199.075 514.908 199.278 514.908C199.575 514.908 199.957 514.822 200.233 514.822C200.721 514.822 201.017 515.015 201.378 515.422C202.29 516.386 203.117 517.436 204.05 518.143Z" fill="#231F20"/>
<path d="M179.77 515.509C179.961 515.509 180.321 514.416 181.064 514.416C181.276 514.416 181.318 514.502 181.318 514.587C181.318 514.737 181.064 514.866 181.064 515.059C181.064 515.102 181.085 515.144 181.149 515.144C181.318 515.144 181.467 514.737 182.188 514.737C182.379 514.737 182.548 514.759 182.718 514.802C182.803 514.823 182.973 514.909 182.888 514.673C182.718 514.159 182.145 513.688 181.361 513.688C180.668 513.688 179.943 514.238 179.724 514.956C179.665 515.148 179.569 515.509 179.77 515.509Z" fill="#6D6E70"/>
<path d="M193.342 508.694C193.186 508.631 193.121 508.556 193.132 508.41C193.142 508.283 193.201 508.084 193.205 507.957C193.21 507.768 193.038 507.743 192.879 507.844C192.774 507.909 192.669 508.037 192.592 508.133C192.477 508.278 192.35 508.439 192.303 508.566C192.239 508.801 192.515 508.758 192.324 509.144C191.984 509.765 191.9 509.915 191.73 510.344C191.673 510.524 191.623 510.644 191.577 510.733C191.471 510.941 191.395 511.174 191.625 511.132C191.671 511.124 191.721 511.111 191.772 511.094C192.048 510.987 192.069 511.329 191.963 511.565C191.878 511.737 191.942 511.801 192.175 511.608C192.387 511.437 192.069 511.308 192.133 510.772C192.218 510.301 192.303 510.022 192.6 509.551C192.854 509.144 193.066 508.844 193.49 508.994C193.66 509.08 193.575 508.801 193.342 508.694Z" fill="#6D6E70"/>
<path d="M202.44 522.728C202.525 522.728 202.546 522.621 202.546 522.514C202.546 522.496 202.545 522.477 202.544 522.459C202.519 522.125 202.016 522.179 202.016 522.514C202.016 522.621 202.334 522.728 202.44 522.728Z" fill="#6D6E70"/>
<path d="M204.481 519.408C204.609 519.408 204.799 519.365 204.799 519.258C204.799 519.255 204.799 519.252 204.799 519.249C204.785 518.933 204.165 519.408 204.481 519.408Z" fill="#6D6E70"/>
<path d="M195.481 514.886C197.326 515.743 197.22 517.308 197.369 516.922C197.433 516.75 197.687 515.979 197.03 515.229C196.521 514.629 196.33 514.779 196.521 514.287C197.326 512.315 197.835 509.337 195.418 508.309C195.142 508.202 194.909 508.202 194.909 508.245C194.909 508.287 195.163 508.373 195.481 508.587C197.093 509.659 196.584 512.594 195.121 514.008C194.654 514.501 194.887 514.608 195.481 514.886Z" fill="#6D6E70"/>
<path d="M189.166 528.599C189.293 528.599 189.229 528.406 189.187 528.32C189.055 528.08 188.665 528.34 188.84 528.55C188.865 528.581 188.896 528.599 188.932 528.599H189.166Z" fill="#6D6E70"/>
<path d="M183.587 528.599C183.714 528.599 183.629 528.406 183.565 528.32C183.43 528.074 183.028 528.358 183.224 528.559C183.249 528.584 183.278 528.599 183.311 528.599H183.587Z" fill="#6D6E70"/>
<path d="M190.355 517.393C191.373 517.286 191.543 517.05 191.713 516.279C191.797 515.915 192.052 515.529 192.285 515.293C192.423 515.135 192.56 515.013 192.697 514.809C192.72 514.775 192.75 514.712 192.765 514.675C192.8 514.587 192.692 514.638 192.615 514.693C192.462 514.8 192.228 514.955 192.115 515.036C191.394 515.55 190.292 515.786 189.867 515.786C188.934 515.786 188.128 515.507 187.28 515.507C184.735 515.507 183.78 517.521 183.908 518.7C183.929 518.893 183.95 518.893 184.014 518.893C184.183 518.893 184.353 518.207 184.989 517.586C185.922 516.686 186.94 516.172 188.383 516.172C189.422 516.172 189.867 516.514 189.867 516.643C189.867 517.112 189.607 517.422 190.076 517.414C190.159 517.413 190.252 517.406 190.355 517.393Z" fill="#6D6E70"/>
<text fill="#2E6DC5" xml:space="preserve" style="white-space: pre" font-family="Inter" font-size="16" font-weight="500" letter-spacing="0em"><tspan x="220" y="523.818">LOYDGB2L</tspan></text>
<text fill="#2E6DC5" xml:space="preserve" style="white-space: pre" font-family="Inter" font-size="14" letter-spacing="0px"><tspan x="168" y="560.785">LLOYDS BANK PLC</tspan></text>
<rect x="169" y="577" width="302" height="46" rx="5" fill="white"/>
<rect x="169" y="577" width="302" height="46" rx="5" stroke="#2E6DC5" stroke-width="2"/>
<text fill="#2E6DC5" xml:space="preserve" style="white-space: pre" font-family="Inter" font-size="16" font-weight="500" letter-spacing="0em"><tspan x="184" y="605.818">IBAN</tspan></text>
</g>
</g>
</g>
<defs>
<filter id="filter0_d_1009_9080" x="54" y="-4" width="532" height="770" filterUnits="userSpaceOnUse" color-interpolation-filters="sRGB">
<feFlood flood-opacity="0" result="BackgroundImageFix"/>
<feColorMatrix in="SourceAlpha" type="matrix" values="0 0 0 0 0 0 0 0 0 0 0 0 0 0 0 0 0 0 127 0" result="hardAlpha"/>
<feOffset dy="20"/>
<feGaussianBlur stdDeviation="33"/>
<feComposite in2="hardAlpha" operator="out"/>
<feColorMatrix type="matrix" values="0 0 0 0 0.133333 0 0 0 0 0.188235 0 0 0 0 0.286275 0 0 0 0.2 0"/>
<feBlend mode="normal" in2="BackgroundImageFix" result="effect1_dropShadow_1009_9080"/>
<feBlend mode="normal" in="SourceGraphic" in2="effect1_dropShadow_1009_9080" result="shape"/>
</filter>
<linearGradient id="paint0_linear_1009_9080" x1="488" y1="474" x2="193.845" y2="695.557" gradientUnits="userSpaceOnUse">
<stop stop-color="#6D4CD5"/>
<stop offset="1" stop-color="#18D3ED"/>
</linearGradient>
<clipPath id="clip0_1009_9080">
<rect width="640" height="640" fill="white"/>
</clipPath>
<clipPath id="clip1_1009_9080">
<rect x="120" y="42" width="400" height="638" rx="24" fill="white"/>
</clipPath>
<clipPath id="clip2_1009_9080">
<rect x="168" y="332" width="24" height="24" rx="12" fill="white"/>
</clipPath>
</defs>
</svg>
