<svg width="49" height="48" viewBox="0 0 49 48" fill="none" xmlns="http://www.w3.org/2000/svg">
<g clip-path="url(#clip0_1053_7127)">
<rect width="48" height="48" transform="translate(0.5)" fill="white"/>
<rect width="1.68536" height="24" transform="matrix(-1 0 0 1 14.1792 24)" fill="black"/>
<rect width="7.01408" height="24" transform="matrix(-1 0 0 1 36.5 24)" fill="black"/>
<rect width="5.31594" height="24" transform="matrix(-1 0 0 1 27.7876 24)" fill="black"/>
<rect width="3.66814" height="24" transform="matrix(-1 0 0 1 20.3115 24)" fill="black"/>
<rect width="1.68536" height="24" transform="matrix(-1 0 0 1 2.18506 0)" fill="black"/>
<rect width="7.01408" height="24" transform="matrix(-1 0 0 1 24.5059 0)" fill="black"/>
<rect width="5.31594" height="24" transform="matrix(-1 0 0 1 15.7935 0)" fill="black"/>
<rect width="3.66814" height="24" transform="matrix(-1 0 0 1 8.31738 0)" fill="black"/>
<rect width="24" height="24" transform="matrix(-1 0 0 1 48.5 0)" fill="#7543DD"/>
</g>
<defs>
<clipPath id="clip0_1053_7127">
<rect width="48" height="48" fill="white" transform="translate(0.5)"/>
</clipPath>
</defs>
</svg>
