<svg width="49" height="48" viewBox="0 0 49 48" fill="none" xmlns="http://www.w3.org/2000/svg">
<g clip-path="url(#clip0_1053_7213)">
<rect width="48" height="48" transform="translate(0.5)" fill="white"/>
<rect width="1.68536" height="24" transform="matrix(4.37114e-08 1 1 -4.37114e-08 0.5 46.3146)" fill="black"/>
<rect width="7.01408" height="24" transform="matrix(4.37114e-08 1 1 -4.37114e-08 0.5 23.994)" fill="black"/>
<rect width="5.31594" height="24" transform="matrix(4.37114e-08 1 1 -4.37114e-08 0.5 32.7063)" fill="black"/>
<rect width="3.66814" height="24" transform="matrix(4.37114e-08 1 1 -4.37114e-08 0.5 40.1827)" fill="black"/>
<rect width="24" height="24" transform="matrix(4.37114e-08 1 1 -4.37114e-08 0.5 -3.05176e-05)" fill="#7543DD"/>
<rect width="3.36989" height="24" transform="matrix(-4.37114e-08 1 1 4.37114e-08 24.5 42.9399)" fill="black"/>
<rect width="14.0247" height="24" transform="matrix(-4.37114e-08 1 1 4.37114e-08 24.5 -1.69016)" fill="black"/>
<rect width="10.6292" height="24" transform="matrix(-4.37114e-08 1 1 4.37114e-08 24.5 15.73)" fill="black"/>
<rect width="7.33447" height="24" transform="matrix(-4.37114e-08 1 1 4.37114e-08 24.5 30.679)" fill="black"/>
</g>
<defs>
<clipPath id="clip0_1053_7213">
<rect width="48" height="48" fill="white" transform="translate(0.5)"/>
</clipPath>
</defs>
</svg>
