<svg width="641" height="640" viewBox="0 0 641 640" fill="none" xmlns="http://www.w3.org/2000/svg" style="width: 100%; height: 100%;">
<g clip-path="url(#clip0_301_6228)">
<g opacity="0.4" filter="url(#filter0_d_301_6228)">
<rect x="160.5" y="95" width="400" height="618" rx="24" fill="white"/>
</g>
<g opacity="0.6" filter="url(#filter1_d_301_6228)">
<rect x="140.5" y="75" width="400" height="618" rx="24" fill="white"/>
</g>
<g filter="url(#filter2_d_301_6228)">
<rect x="120.5" y="55" width="400" height="640" rx="24" fill="white"/>
<text fill="#393939" xml:space="preserve" style="white-space: pre" font-family="Inter" font-size="26" font-weight="600" letter-spacing="-0.5px"><tspan x="152.5" y="112.455">Add wire account</tspan></text>
<text fill="#393939" xml:space="preserve" style="white-space: pre" font-family="Inter" font-size="16" letter-spacing="0em"><tspan x="152.5" y="160.818">Please provide the bank and account details</tspan></text>
<text fill="#393939" xml:space="preserve" style="white-space: pre" font-family="Inter" font-size="16" font-weight="500" letter-spacing="0em"><tspan x="152.5" y="208.818">Currency</tspan></text>
<rect x="153" y="221.5" width="335" height="47" rx="5.5" fill="white"/>
<rect x="153" y="221.5" width="335" height="47" rx="5.5" stroke="#C6C6C6"/>
<text fill="black" xml:space="preserve" style="white-space: pre" font-family="Inter" font-size="16" font-weight="500" letter-spacing="0em"><tspan x="168.5" y="250.818">€ EUR</tspan></text>
<path d="M466.5 248L461.5 243H471.5L466.5 248Z" fill="#393939"/>
<text fill="#393939" xml:space="preserve" style="white-space: pre" font-family="Inter" font-size="16" font-weight="500" letter-spacing="0em"><tspan x="152.5" y="310.818">Country</tspan></text>
<rect x="153" y="323.5" width="335" height="47" rx="5.5" fill="white"/>
<rect x="153" y="323.5" width="335" height="47" rx="5.5" stroke="#C6C6C6"/>
<g clip-path="url(#clip1_301_6228)">
<mask id="mask0_301_6228" style="mask-type:luminance" maskUnits="userSpaceOnUse" x="168" y="335" width="25" height="24">
<path d="M192.5 335H168.5V359H192.5V335Z" fill="white"/>
</mask>
<g mask="url(#mask0_301_6228)">
<path d="M168.5 347C168.5 348.4 168.75 349.75 169.175 351H191.8C192.25 349.75 192.5 348.4 192.5 347C192.5 345.6 192.25 344.25 191.825 343H169.175C168.75 344.25 168.5 345.6 168.5 347Z" fill="#F0263C"/>
<path d="M169.175 343H191.8C190.175 338.35 185.725 335 180.5 335C175.275 335 170.825 338.35 169.175 343Z" fill="black"/>
<path d="M191.825 351H169.175C170.825 355.65 175.275 359 180.5 359C185.725 359 190.175 355.65 191.825 351Z" fill="#FFD400"/>
</g>
</g>
<text fill="black" xml:space="preserve" style="white-space: pre" font-family="Inter" font-size="16" font-weight="500" letter-spacing="0em"><tspan x="202.5" y="352.818">Germany</tspan></text>
<path d="M466.5 350L461.5 345H471.5L466.5 350Z" fill="#393939"/>
<text fill="#393939" xml:space="preserve" style="white-space: pre" font-family="Inter" font-size="16" font-weight="500" letter-spacing="0em"><tspan x="152.5" y="412.818">I have...</tspan></text>
<rect x="153" y="425.5" width="335" height="47" rx="5.5" fill="white"/>
<rect x="153" y="425.5" width="335" height="47" rx="5.5" stroke="#C6C6C6"/>
<text fill="black" xml:space="preserve" style="white-space: pre" font-family="Inter" font-size="16" font-weight="500" letter-spacing="0em"><tspan x="168.5" y="454.818">IBAN</tspan></text>
<path d="M466.5 452L461.5 447H471.5L466.5 452Z" fill="#393939"/>
<rect x="152.5" y="485" width="336" height="88" rx="10" fill="#F8F6FC"/>
<rect x="169.5" y="506" width="302" height="46" rx="5" fill="white"/>
<rect x="169.5" y="506" width="302" height="46" rx="5" stroke="#7543DD" stroke-width="2"/>
<text fill="#7543DD" xml:space="preserve" style="white-space: pre" font-family="Inter" font-size="16" font-weight="500" letter-spacing="0em"><tspan x="184.5" y="534.818">IBAN</tspan></text>
</g>
</g>
<defs>
<filter id="filter0_d_301_6228" x="94.5" y="49" width="532" height="750" filterUnits="userSpaceOnUse" color-interpolation-filters="sRGB">
<feFlood flood-opacity="0" result="BackgroundImageFix"/>
<feColorMatrix in="SourceAlpha" type="matrix" values="0 0 0 0 0 0 0 0 0 0 0 0 0 0 0 0 0 0 127 0" result="hardAlpha"/>
<feOffset dy="20"/>
<feGaussianBlur stdDeviation="33"/>
<feComposite in2="hardAlpha" operator="out"/>
<feColorMatrix type="matrix" values="0 0 0 0 0.133333 0 0 0 0 0.188235 0 0 0 0 0.286275 0 0 0 0.2 0"/>
<feBlend mode="normal" in2="BackgroundImageFix" result="effect1_dropShadow_301_6228"/>
<feBlend mode="normal" in="SourceGraphic" in2="effect1_dropShadow_301_6228" result="shape"/>
</filter>
<filter id="filter1_d_301_6228" x="74.5" y="29" width="532" height="750" filterUnits="userSpaceOnUse" color-interpolation-filters="sRGB">
<feFlood flood-opacity="0" result="BackgroundImageFix"/>
<feColorMatrix in="SourceAlpha" type="matrix" values="0 0 0 0 0 0 0 0 0 0 0 0 0 0 0 0 0 0 127 0" result="hardAlpha"/>
<feOffset dy="20"/>
<feGaussianBlur stdDeviation="33"/>
<feComposite in2="hardAlpha" operator="out"/>
<feColorMatrix type="matrix" values="0 0 0 0 0.133333 0 0 0 0 0.188235 0 0 0 0 0.286275 0 0 0 0.2 0"/>
<feBlend mode="normal" in2="BackgroundImageFix" result="effect1_dropShadow_301_6228"/>
<feBlend mode="normal" in="SourceGraphic" in2="effect1_dropShadow_301_6228" result="shape"/>
</filter>
<filter id="filter2_d_301_6228" x="54.5" y="9" width="532" height="772" filterUnits="userSpaceOnUse" color-interpolation-filters="sRGB">
<feFlood flood-opacity="0" result="BackgroundImageFix"/>
<feColorMatrix in="SourceAlpha" type="matrix" values="0 0 0 0 0 0 0 0 0 0 0 0 0 0 0 0 0 0 127 0" result="hardAlpha"/>
<feOffset dy="20"/>
<feGaussianBlur stdDeviation="33"/>
<feComposite in2="hardAlpha" operator="out"/>
<feColorMatrix type="matrix" values="0 0 0 0 0.133333 0 0 0 0 0.188235 0 0 0 0 0.286275 0 0 0 0.2 0"/>
<feBlend mode="normal" in2="BackgroundImageFix" result="effect1_dropShadow_301_6228"/>
<feBlend mode="normal" in="SourceGraphic" in2="effect1_dropShadow_301_6228" result="shape"/>
</filter>
<clipPath id="clip0_301_6228">
<rect width="640" height="640" fill="white" transform="translate(0.5)"/>
</clipPath>
<clipPath id="clip1_301_6228">
<rect width="24" height="24" fill="white" transform="translate(168.5 335)"/>
</clipPath>
</defs>
</svg>
