<svg width="641" height="640" viewBox="0 0 641 640" fill="none" xmlns="http://www.w3.org/2000/svg" style="width: 100%; height: 100%;">
<g clip-path="url(#clip0_3005_6415)">
<g opacity="0.4" filter="url(#filter0_d_3005_6415)">
<rect x="160.5" y="95" width="400" height="618" rx="24" fill="white"/>
</g>
<g opacity="0.6" filter="url(#filter1_d_3005_6415)">
<rect x="140.5" y="75" width="400" height="618" rx="24" fill="white"/>
</g>
<g filter="url(#filter2_d_3005_6415)">
<rect x="120.5" y="55" width="400" height="618" rx="24" fill="white"/>
<text fill="#393939" xml:space="preserve" style="white-space: pre" font-family="Inter" font-size="26" font-weight="600" letter-spacing="-0.5px"><tspan x="152.5" y="112.455">Add wire account</tspan></text>
<text fill="#393939" xml:space="preserve" style="white-space: pre" font-family="Inter" font-size="16" letter-spacing="0em"><tspan x="152.5" y="160.818">Please provide the bank and account details</tspan></text>
<text fill="#393939" xml:space="preserve" style="white-space: pre" font-family="Inter" font-size="16" font-weight="500" letter-spacing="0em"><tspan x="152.5" y="208.818">Currency</tspan></text>
<rect x="153" y="221.5" width="335" height="47" rx="5.5" fill="white"/>
<rect x="153" y="221.5" width="335" height="47" rx="5.5" stroke="#C6C6C6"/>
<text fill="black" xml:space="preserve" style="white-space: pre" font-family="Inter" font-size="16" font-weight="500" letter-spacing="0em"><tspan x="168.5" y="250.818">£ GBP</tspan></text>
<path d="M466.5 248L461.5 243H471.5L466.5 248Z" fill="#393939"/>
<text fill="#393939" xml:space="preserve" style="white-space: pre" font-family="Inter" font-size="16" font-weight="500" letter-spacing="0em"><tspan x="152.5" y="310.818">Country</tspan></text>
<rect x="153" y="323.5" width="335" height="47" rx="5.5" fill="white"/>
<rect x="153" y="323.5" width="335" height="47" rx="5.5" stroke="#C6C6C6"/>
<g clip-path="url(#clip1_3005_6415)">
<mask id="mask0_3005_6415" style="mask-type:alpha" maskUnits="userSpaceOnUse" x="168" y="335" width="25" height="24">
<path d="M180.5 359C187.127 359 192.5 353.627 192.5 347C192.5 340.373 187.127 335 180.5 335C173.873 335 168.5 340.373 168.5 347C168.5 353.627 173.873 359 180.5 359Z" fill="#231D9A"/>
</mask>
<g mask="url(#mask0_3005_6415)">
<path d="M192.5 335H168.5V359H192.5V335Z" fill="#231D9A"/>
<path d="M178.625 345.125V334.625H177.5V342.688L169.438 337.25L167 340.438L172.438 344H167.562V345.125H178.625Z" fill="white"/>
<path d="M178.625 348.875V359.375H177.5V351.312L169.438 356.75L167 353.562L172.438 350H167.562V348.875H178.625Z" fill="white"/>
<path d="M182.375 345.125V334.625H183.5V342.688L191.562 337.25L194 340.438L188.562 344H193.438V345.125H182.375Z" fill="white"/>
<path d="M182.375 348.875V359.375H183.5V351.312L191.562 356.75L194 353.562L188.562 350H193.438V348.875H182.375Z" fill="white"/>
<path d="M177.5 344V343.812L169.625 338.562L168.312 340.062L174.125 344H177.5Z" fill="#F0263C"/>
<path d="M177.5 350V350.188L169.625 355.438L168.312 353.938L174.125 350H177.5Z" fill="#F0263C"/>
<path d="M183.5 344V343.812L191.375 338.562L192.688 340.062L186.875 344H183.5Z" fill="#F0263C"/>
<path d="M183.5 350V350.188L191.375 355.438L192.688 353.938L186.875 350H183.5Z" fill="#F0263C"/>
<path fill-rule="evenodd" clip-rule="evenodd" d="M182.375 345.125V334.25H178.625V345.125H167.75V348.875H178.625V359.75H182.375V348.875H193.25V345.125H182.375Z" fill="#F0263C"/>
</g>
</g>
<text fill="black" xml:space="preserve" style="white-space: pre" font-family="Inter" font-size="16" font-weight="500" letter-spacing="0em"><tspan x="202.5" y="352.818">United Kingdom</tspan></text>
<path d="M466.5 350L461.5 345H471.5L466.5 350Z" fill="#393939"/>
<text fill="#393939" xml:space="preserve" style="white-space: pre" font-family="Inter" font-size="16" font-weight="500" letter-spacing="0em"><tspan x="152.5" y="412.818">I have...</tspan></text>
<rect x="153" y="425.5" width="335" height="47" rx="5.5" fill="white"/>
<rect x="153" y="425.5" width="335" height="47" rx="5.5" stroke="#C6C6C6"/>
<text fill="black" xml:space="preserve" style="white-space: pre" font-family="Inter" font-size="16" font-weight="500" letter-spacing="0em"><tspan x="168.5" y="454.818">Sort code and account number</tspan></text>
<path d="M466.5 452L461.5 447H471.5L466.5 452Z" fill="#393939"/>
<rect x="152.5" y="485" width="336" height="156" rx="17" fill="url(#paint0_linear_3005_6415)" fill-opacity="0.1"/>
<rect x="169.5" y="506" width="302" height="46" rx="5" fill="white"/>
<rect x="169.5" y="506" width="302" height="46" rx="5" stroke="#2E6DC5" stroke-width="2"/>
<text fill="#2E6DC5" xml:space="preserve" style="white-space: pre" font-family="Inter" font-size="16" font-weight="500" letter-spacing="0em"><tspan x="184.5" y="534.818">Sort code</tspan></text>
<rect x="169.5" y="574" width="302" height="46" rx="5" fill="white"/>
<rect x="169.5" y="574" width="302" height="46" rx="5" stroke="#2E6DC5" stroke-width="2"/>
<text fill="#2E6DC5" xml:space="preserve" style="white-space: pre" font-family="Inter" font-size="16" font-weight="500" letter-spacing="0em"><tspan x="184.5" y="602.818">Account number</tspan></text>
</g>
</g>
<defs>
<filter id="filter0_d_3005_6415" x="94.5" y="49" width="532" height="750" filterUnits="userSpaceOnUse" color-interpolation-filters="sRGB">
<feFlood flood-opacity="0" result="BackgroundImageFix"/>
<feColorMatrix in="SourceAlpha" type="matrix" values="0 0 0 0 0 0 0 0 0 0 0 0 0 0 0 0 0 0 127 0" result="hardAlpha"/>
<feOffset dy="20"/>
<feGaussianBlur stdDeviation="33"/>
<feComposite in2="hardAlpha" operator="out"/>
<feColorMatrix type="matrix" values="0 0 0 0 0.133333 0 0 0 0 0.188235 0 0 0 0 0.286275 0 0 0 0.2 0"/>
<feBlend mode="normal" in2="BackgroundImageFix" result="effect1_dropShadow_3005_6415"/>
<feBlend mode="normal" in="SourceGraphic" in2="effect1_dropShadow_3005_6415" result="shape"/>
</filter>
<filter id="filter1_d_3005_6415" x="74.5" y="29" width="532" height="750" filterUnits="userSpaceOnUse" color-interpolation-filters="sRGB">
<feFlood flood-opacity="0" result="BackgroundImageFix"/>
<feColorMatrix in="SourceAlpha" type="matrix" values="0 0 0 0 0 0 0 0 0 0 0 0 0 0 0 0 0 0 127 0" result="hardAlpha"/>
<feOffset dy="20"/>
<feGaussianBlur stdDeviation="33"/>
<feComposite in2="hardAlpha" operator="out"/>
<feColorMatrix type="matrix" values="0 0 0 0 0.133333 0 0 0 0 0.188235 0 0 0 0 0.286275 0 0 0 0.2 0"/>
<feBlend mode="normal" in2="BackgroundImageFix" result="effect1_dropShadow_3005_6415"/>
<feBlend mode="normal" in="SourceGraphic" in2="effect1_dropShadow_3005_6415" result="shape"/>
</filter>
<filter id="filter2_d_3005_6415" x="54.5" y="9" width="532" height="750" filterUnits="userSpaceOnUse" color-interpolation-filters="sRGB">
<feFlood flood-opacity="0" result="BackgroundImageFix"/>
<feColorMatrix in="SourceAlpha" type="matrix" values="0 0 0 0 0 0 0 0 0 0 0 0 0 0 0 0 0 0 127 0" result="hardAlpha"/>
<feOffset dy="20"/>
<feGaussianBlur stdDeviation="33"/>
<feComposite in2="hardAlpha" operator="out"/>
<feColorMatrix type="matrix" values="0 0 0 0 0.133333 0 0 0 0 0.188235 0 0 0 0 0.286275 0 0 0 0.2 0"/>
<feBlend mode="normal" in2="BackgroundImageFix" result="effect1_dropShadow_3005_6415"/>
<feBlend mode="normal" in="SourceGraphic" in2="effect1_dropShadow_3005_6415" result="shape"/>
</filter>
<linearGradient id="paint0_linear_3005_6415" x1="471.191" y1="475.059" x2="216.416" y2="710.241" gradientUnits="userSpaceOnUse">
<stop stop-color="#6D4CD5"/>
<stop offset="1" stop-color="#18D3ED"/>
</linearGradient>
<clipPath id="clip0_3005_6415">
<rect width="640" height="640" fill="white" transform="translate(0.5)"/>
</clipPath>
<clipPath id="clip1_3005_6415">
<rect x="168.5" y="335" width="24" height="24" rx="12" fill="white"/>
</clipPath>
</defs>
</svg>
