<svg width="33" height="32" viewBox="0 0 33 32" fill="none" xmlns="http://www.w3.org/2000/svg">
<g id="LinkedIn" clip-path="url(#clip0_582_12975)">
<path id="Icon" d="M26.1666 0H7.49992C3.81859 0 0.833252 2.98533 0.833252 6.66667V25.3333C0.833252 29.0147 3.81859 32 7.49992 32H26.1666C29.8493 32 32.8333 29.0147 32.8333 25.3333V6.66667C32.8333 2.98533 29.8493 0 26.1666 0ZM11.4999 25.3333H7.49992V10.6667H11.4999V25.3333ZM9.49992 8.976C8.21192 8.976 7.16659 7.92267 7.16659 6.624C7.16659 5.32533 8.21192 4.272 9.49992 4.272C10.7879 4.272 11.8333 5.32533 11.8333 6.624C11.8333 7.92267 10.7893 8.976 9.49992 8.976ZM27.4999 25.3333H23.4999V17.8613C23.4999 13.3707 18.1666 13.7107 18.1666 17.8613V25.3333H14.1666V10.6667H18.1666V13.02C20.0279 9.572 27.4999 9.31733 27.4999 16.3213V25.3333Z" fill="#522F9B"/>
</g>
<defs>
<clipPath id="clip0_582_12975">
<rect width="32" height="32" fill="white" transform="translate(0.833252)"/>
</clipPath>
</defs>
</svg>
