<svg width="24" height="24" viewBox="0 0 24 24" fill="none" xmlns="http://www.w3.org/2000/svg">
<path fill-rule="evenodd" clip-rule="evenodd" d="M10.125 7.60953V10.746H8.875V7.60953C8.875 6.72061 9.60254 6 10.5 6H13.5C14.3975 6 15.125 6.72061 15.125 7.60953V10.746H13.875V7.60953C13.875 7.40439 13.7071 7.2381 13.5 7.2381H10.5C10.2929 7.2381 10.125 7.40439 10.125 7.60953ZM7.83333 11.7365C7.3731 11.7365 7 12.1061 7 12.5619V15.6984C7 17.5218 8.49238 19 10.3333 19H13.6667C15.5076 19 17 17.5218 17 15.6984V12.5619C17 12.1061 16.6269 11.7365 16.1667 11.7365H7.83333Z" fill="black"/>
</svg>
